<svg xmlns="http://www.w3.org/2000/svg" xmlns:xlink="http://www.w3.org/1999/xlink" width="500" zoomAndPan="magnify" viewBox="0 0 375 374.999991" height="500" preserveAspectRatio="xMidYMid meet" version="1.2"><defs><clipPath id="d2c37d0702"><path d="M 300.136719 214.15625 L 324.136719 214.15625 L 324.136719 238.90625 L 300.136719 238.90625 Z M 300.136719 214.15625 "/></clipPath></defs><g id="59b006bc2b"><g style="fill:#000000;fill-opacity:1;"><g transform="translate(60.824931, 207.808213)"><path style="stroke:none" d="M 27.578125 -31.71875 C 24.816406 -31.71875 22.441406 -30.695312 20.453125 -28.65625 C 18.460938 -26.613281 17.46875 -24.15625 17.46875 -21.28125 C 17.46875 -18.351562 18.460938 -15.867188 20.453125 -13.828125 C 22.441406 -11.785156 24.816406 -10.765625 27.578125 -10.765625 C 28.898438 -10.765625 30.15625 -10.929688 31.34375 -11.265625 C 32.53125 -11.597656 33.398438 -11.925781 33.953125 -12.25 L 34.703125 -12.75 L 39.671875 -2.5625 C 39.285156 -2.289062 38.742188 -1.945312 38.046875 -1.53125 C 37.359375 -1.113281 35.785156 -0.546875 33.328125 0.171875 C 30.867188 0.890625 28.234375 1.25 25.421875 1.25 C 19.179688 1.25 13.703125 -0.941406 8.984375 -5.328125 C 4.265625 -9.722656 1.90625 -14.988281 1.90625 -21.125 C 1.90625 -27.300781 4.265625 -32.609375 8.984375 -37.046875 C 13.703125 -41.492188 19.179688 -43.71875 25.421875 -43.71875 C 28.234375 -43.71875 30.828125 -43.382812 33.203125 -42.71875 C 35.578125 -42.0625 37.265625 -41.40625 38.265625 -40.75 L 39.671875 -39.75 L 34.703125 -29.734375 C 32.878906 -31.054688 30.503906 -31.71875 27.578125 -31.71875 Z M 27.578125 -31.71875 "/></g></g><g style="fill:#000000;fill-opacity:1;"><g transform="translate(95.022496, 207.808213)"><path style="stroke:none" d="M 4.96875 0 L 4.96875 -71.21875 L 19.625 -71.21875 L 19.625 -38.015625 L 19.796875 -38.015625 C 23.597656 -41.816406 27.65625 -43.71875 31.96875 -43.71875 C 34.0625 -43.71875 36.144531 -43.441406 38.21875 -42.890625 C 40.289062 -42.335938 42.273438 -41.484375 44.171875 -40.328125 C 46.078125 -39.171875 47.625 -37.53125 48.8125 -35.40625 C 50 -33.28125 50.59375 -30.804688 50.59375 -27.984375 L 50.59375 0 L 35.9375 0 L 35.9375 -24.015625 C 35.9375 -26.222656 35.234375 -28.15625 33.828125 -29.8125 C 32.421875 -31.46875 30.585938 -32.296875 28.328125 -32.296875 C 26.117188 -32.296875 24.113281 -31.4375 22.3125 -29.71875 C 20.519531 -28.007812 19.625 -26.109375 19.625 -24.015625 L 19.625 0 Z M 4.96875 0 "/></g></g><g style="fill:#000000;fill-opacity:1;"><g transform="translate(143.296842, 207.808213)"><path style="stroke:none" d="M 6.375 -66.15625 C 8.082031 -67.875 10.125 -68.734375 12.5 -68.734375 C 14.875 -68.734375 16.914062 -67.875 18.625 -66.15625 C 20.34375 -64.445312 21.203125 -62.40625 21.203125 -60.03125 C 21.203125 -57.664062 20.34375 -55.625 18.625 -53.90625 C 16.914062 -52.195312 14.875 -51.34375 12.5 -51.34375 C 10.125 -51.34375 8.082031 -52.195312 6.375 -53.90625 C 4.664062 -55.625 3.8125 -57.664062 3.8125 -60.03125 C 3.8125 -62.40625 4.664062 -64.445312 6.375 -66.15625 Z M 4.96875 -42.484375 L 4.96875 0 L 19.625 0 L 19.625 -42.484375 Z M 4.96875 -42.484375 "/></g></g><g style="fill:#000000;fill-opacity:1;"><g transform="translate(161.844338, 207.808213)"><path style="stroke:none" d="M 7.453125 -42.484375 L 7.453125 -58.296875 L 22.109375 -58.296875 L 22.109375 -42.484375 L 31.0625 -42.484375 L 31.0625 -31.296875 L 22.109375 -31.296875 L 22.109375 -17.8125 C 22.109375 -13.882812 23.210938 -11.921875 25.421875 -11.921875 C 25.972656 -11.921875 26.550781 -12.03125 27.15625 -12.25 C 27.769531 -12.476562 28.242188 -12.703125 28.578125 -12.921875 L 29.0625 -13.25 L 32.71875 -1.40625 C 29.5625 0.363281 25.972656 1.25 21.953125 1.25 C 19.191406 1.25 16.816406 0.765625 14.828125 -0.203125 C 12.835938 -1.171875 11.332031 -2.46875 10.3125 -4.09375 C 9.289062 -5.726562 8.554688 -7.441406 8.109375 -9.234375 C 7.671875 -11.023438 7.453125 -12.941406 7.453125 -14.984375 L 7.453125 -31.296875 L 1.328125 -31.296875 L 1.328125 -42.484375 Z M 7.453125 -42.484375 "/></g></g><g style="fill:#000000;fill-opacity:1;"><g transform="translate(188.092654, 207.808213)"><path style="stroke:none" d="M 4.96875 0 L 4.96875 -42.484375 L 19.625 -42.484375 L 19.625 -36.359375 L 19.796875 -36.359375 C 19.898438 -36.578125 20.078125 -36.851562 20.328125 -37.1875 C 20.578125 -37.519531 21.113281 -38.097656 21.9375 -38.921875 C 22.769531 -39.753906 23.65625 -40.5 24.59375 -41.15625 C 25.53125 -41.820312 26.742188 -42.414062 28.234375 -42.9375 C 29.722656 -43.457031 31.242188 -43.71875 32.796875 -43.71875 C 34.398438 -43.71875 35.972656 -43.5 37.515625 -43.0625 C 39.054688 -42.625 40.1875 -42.179688 40.90625 -41.734375 L 42.0625 -41.078125 L 35.9375 -28.65625 C 34.113281 -30.195312 31.578125 -30.96875 28.328125 -30.96875 C 26.554688 -30.96875 25.035156 -30.582031 23.765625 -29.8125 C 22.492188 -29.039062 21.597656 -28.101562 21.078125 -27 C 20.554688 -25.894531 20.179688 -24.953125 19.953125 -24.171875 C 19.734375 -23.398438 19.625 -22.796875 19.625 -22.359375 L 19.625 0 Z M 4.96875 0 "/></g></g><g style="fill:#000000;fill-opacity:1;"><g transform="translate(222.86985, 207.808213)"><path style="stroke:none" d="M 7.859375 -5.25 C 3.890625 -9.59375 1.90625 -14.910156 1.90625 -21.203125 C 1.90625 -27.492188 3.890625 -32.816406 7.859375 -37.171875 C 11.835938 -41.535156 16.890625 -43.71875 23.015625 -43.71875 C 28.648438 -43.71875 33.289062 -41.953125 36.9375 -38.421875 L 36.9375 -42.484375 L 51.59375 -42.484375 L 51.59375 0 L 37.09375 0 L 37.09375 -4.796875 L 36.9375 -4.796875 C 33.289062 -0.765625 28.648438 1.25 23.015625 1.25 C 16.890625 1.25 11.835938 -0.914062 7.859375 -5.25 Z M 20.328125 -28.40625 C 18.421875 -26.53125 17.46875 -24.128906 17.46875 -21.203125 C 17.46875 -18.273438 18.378906 -15.882812 20.203125 -14.03125 C 22.023438 -12.1875 24.425781 -11.265625 27.40625 -11.265625 C 30.28125 -11.265625 32.640625 -12.203125 34.484375 -14.078125 C 36.335938 -15.953125 37.265625 -18.328125 37.265625 -21.203125 C 37.265625 -24.128906 36.3125 -26.53125 34.40625 -28.40625 C 32.5 -30.28125 30.164062 -31.21875 27.40625 -31.21875 C 24.59375 -31.21875 22.234375 -30.28125 20.328125 -28.40625 Z M 20.328125 -28.40625 "/></g></g><g style="fill:#000000;fill-opacity:1;"><g transform="translate(272.965901, 207.808213)"><path style="stroke:none" d="M 7.453125 -67.03125 C 9.109375 -68.71875 11.125 -69.5625 13.5 -69.5625 C 15.875 -69.5625 17.914062 -68.703125 19.625 -66.984375 C 21.332031 -65.273438 22.1875 -63.238281 22.1875 -60.875 C 22.1875 -53.582031 17.992188 -46.429688 9.609375 -39.421875 L 5.71875 -42.484375 C 6.050781 -42.816406 6.476562 -43.269531 7 -43.84375 C 7.519531 -44.425781 8.304688 -45.640625 9.359375 -47.484375 C 10.410156 -49.335938 11.097656 -51.203125 11.421875 -53.078125 C 9.546875 -53.523438 8 -54.460938 6.78125 -55.890625 C 5.570312 -57.328125 4.96875 -58.988281 4.96875 -60.875 C 4.96875 -63.300781 5.796875 -65.351562 7.453125 -67.03125 Z M 7.453125 -67.03125 "/></g></g><g style="fill:#000000;fill-opacity:1;"><g transform="translate(290.602549, 207.808213)"><path style="stroke:none" d="M 23.4375 -43.71875 C 25.863281 -43.71875 28.265625 -43.441406 30.640625 -42.890625 C 33.015625 -42.335938 34.78125 -41.785156 35.9375 -41.234375 L 37.6875 -40.40625 L 32.875 -30.8125 C 29.5625 -32.570312 26.414062 -33.453125 23.4375 -33.453125 C 21.78125 -33.453125 20.601562 -33.269531 19.90625 -32.90625 C 19.21875 -32.550781 18.875 -31.878906 18.875 -30.890625 C 18.875 -30.671875 18.898438 -30.445312 18.953125 -30.21875 C 19.015625 -30 19.128906 -29.789062 19.296875 -29.59375 C 19.460938 -29.40625 19.613281 -29.242188 19.75 -29.109375 C 19.882812 -28.972656 20.117188 -28.820312 20.453125 -28.65625 C 20.785156 -28.488281 21.046875 -28.363281 21.234375 -28.28125 C 21.429688 -28.195312 21.75 -28.070312 22.1875 -27.90625 C 22.632812 -27.738281 22.96875 -27.613281 23.1875 -27.53125 C 23.40625 -27.445312 23.773438 -27.320312 24.296875 -27.15625 C 24.828125 -27 25.226562 -26.890625 25.5 -26.828125 C 27.21875 -26.335938 28.710938 -25.785156 29.984375 -25.171875 C 31.253906 -24.566406 32.59375 -23.738281 34 -22.6875 C 35.40625 -21.644531 36.492188 -20.320312 37.265625 -18.71875 C 38.035156 -17.113281 38.421875 -15.289062 38.421875 -13.25 C 38.421875 -3.582031 31.710938 1.25 18.296875 1.25 C 15.265625 1.25 12.378906 0.78125 9.640625 -0.15625 C 6.910156 -1.101562 4.941406 -2.046875 3.734375 -2.984375 L 1.90625 -4.46875 L 7.875 -14.5 C 8.3125 -14.101562 8.890625 -13.644531 9.609375 -13.125 C 10.328125 -12.601562 11.625 -11.882812 13.5 -10.96875 C 15.375 -10.0625 17.003906 -9.609375 18.390625 -9.609375 C 21.421875 -9.609375 22.9375 -10.628906 22.9375 -12.671875 C 22.9375 -13.609375 22.550781 -14.335938 21.78125 -14.859375 C 21.007812 -15.390625 19.695312 -15.984375 17.84375 -16.640625 C 16 -17.304688 14.550781 -17.914062 13.5 -18.46875 C 10.851562 -19.84375 8.753906 -21.398438 7.203125 -23.140625 C 5.660156 -24.878906 4.890625 -27.1875 4.890625 -30.0625 C 4.890625 -34.363281 6.554688 -37.710938 9.890625 -40.109375 C 13.234375 -42.515625 17.75 -43.71875 23.4375 -43.71875 Z M 23.4375 -43.71875 "/></g></g><g clip-rule="nonzero" clip-path="url(#d2c37d0702)"><path style=" stroke:none;fill-rule:nonzero;fill:#000000;fill-opacity:1;" d="M 324.132812 226.339844 L 320.59375 226.339844 C 314.535156 225.023438 313.1875 223.664062 311.878906 217.574219 L 311.878906 214.15625 L 311.429688 214.15625 L 311.429688 217.609375 C 310.121094 223.671875 308.769531 225.027344 302.722656 226.339844 L 300.136719 226.339844 L 300.136719 226.789062 L 302.722656 226.789062 C 308.769531 228.101562 310.121094 229.457031 311.429688 235.519531 L 311.429688 238.90625 L 311.878906 238.90625 L 311.878906 235.554688 C 313.1875 229.464844 314.535156 228.105469 320.59375 226.789062 L 324.132812 226.789062 Z M 324.132812 226.339844 "/></g><g style="fill:#000000;fill-opacity:1;"><g transform="translate(188.905362, 232.232094)"><path style="stroke:none" d="M 7.265625 0.1875 C 6.359375 0.1875 5.519531 0.0195312 4.75 -0.3125 C 3.988281 -0.644531 3.328125 -1.097656 2.765625 -1.671875 C 2.203125 -2.253906 1.757812 -2.941406 1.4375 -3.734375 C 1.113281 -4.523438 0.953125 -5.375 0.953125 -6.28125 C 0.953125 -7.21875 1.117188 -8.085938 1.453125 -8.890625 C 1.785156 -9.703125 2.238281 -10.40625 2.8125 -11 C 3.394531 -11.59375 4.070312 -12.0625 4.84375 -12.40625 C 5.613281 -12.75 6.4375 -12.921875 7.3125 -12.921875 C 8.257812 -12.921875 9.144531 -12.71875 9.96875 -12.3125 C 10.789062 -11.914062 11.503906 -11.378906 12.109375 -10.703125 L 11.09375 -9.84375 C 10.601562 -10.414062 10.035156 -10.851562 9.390625 -11.15625 C 8.742188 -11.457031 8.039062 -11.609375 7.28125 -11.609375 C 6.570312 -11.609375 5.914062 -11.476562 5.3125 -11.21875 C 4.71875 -10.957031 4.203125 -10.59375 3.765625 -10.125 C 3.328125 -9.65625 2.984375 -9.101562 2.734375 -8.46875 C 2.492188 -7.84375 2.375 -7.148438 2.375 -6.390625 C 2.375 -5.628906 2.492188 -4.925781 2.734375 -4.28125 C 2.984375 -3.632812 3.332031 -3.078125 3.78125 -2.609375 C 4.226562 -2.148438 4.753906 -1.785156 5.359375 -1.515625 C 5.960938 -1.253906 6.628906 -1.125 7.359375 -1.125 C 8.148438 -1.125 8.867188 -1.28125 9.515625 -1.59375 C 10.160156 -1.914062 10.707031 -2.34375 11.15625 -2.875 L 12.109375 -2.046875 C 11.503906 -1.347656 10.789062 -0.800781 9.96875 -0.40625 C 9.144531 -0.0078125 8.242188 0.1875 7.265625 0.1875 Z M 7.265625 0.1875 "/></g></g><g style="fill:#000000;fill-opacity:1;"><g transform="translate(207.560787, 232.232094)"><path style="stroke:none" d="M 7.3125 0.1875 C 6.4375 0.1875 5.613281 0.015625 4.84375 -0.328125 C 4.070312 -0.671875 3.394531 -1.140625 2.8125 -1.734375 C 2.238281 -2.328125 1.785156 -3.019531 1.453125 -3.8125 C 1.117188 -4.601562 0.953125 -5.453125 0.953125 -6.359375 C 0.953125 -7.265625 1.117188 -8.113281 1.453125 -8.90625 C 1.785156 -9.707031 2.238281 -10.40625 2.8125 -11 C 3.394531 -11.59375 4.070312 -12.0625 4.84375 -12.40625 C 5.613281 -12.75 6.4375 -12.921875 7.3125 -12.921875 C 8.1875 -12.921875 9.007812 -12.75 9.78125 -12.40625 C 10.550781 -12.0625 11.222656 -11.59375 11.796875 -11 C 12.378906 -10.40625 12.835938 -9.710938 13.171875 -8.921875 C 13.515625 -8.128906 13.6875 -7.273438 13.6875 -6.359375 C 13.6875 -5.460938 13.515625 -4.617188 13.171875 -3.828125 C 12.835938 -3.035156 12.378906 -2.34375 11.796875 -1.75 C 11.222656 -1.15625 10.550781 -0.679688 9.78125 -0.328125 C 9.007812 0.015625 8.1875 0.1875 7.3125 0.1875 Z M 7.3125 -1.125 C 8.007812 -1.125 8.660156 -1.253906 9.265625 -1.515625 C 9.878906 -1.785156 10.40625 -2.15625 10.84375 -2.625 C 11.28125 -3.09375 11.625 -3.644531 11.875 -4.28125 C 12.125 -4.925781 12.25 -5.617188 12.25 -6.359375 C 12.25 -7.109375 12.125 -7.800781 11.875 -8.4375 C 11.625 -9.082031 11.28125 -9.640625 10.84375 -10.109375 C 10.40625 -10.578125 9.878906 -10.941406 9.265625 -11.203125 C 8.660156 -11.472656 8.007812 -11.609375 7.3125 -11.609375 C 6.601562 -11.609375 5.945312 -11.472656 5.34375 -11.203125 C 4.75 -10.941406 4.234375 -10.578125 3.796875 -10.109375 C 3.359375 -9.640625 3.007812 -9.082031 2.75 -8.4375 C 2.5 -7.800781 2.375 -7.109375 2.375 -6.359375 C 2.375 -5.617188 2.5 -4.925781 2.75 -4.28125 C 3.007812 -3.644531 3.359375 -3.09375 3.796875 -2.625 C 4.234375 -2.15625 4.75 -1.785156 5.34375 -1.515625 C 5.945312 -1.253906 6.601562 -1.125 7.3125 -1.125 Z M 7.3125 -1.125 "/></g></g><g style="fill:#000000;fill-opacity:1;"><g transform="translate(227.887872, 232.232094)"><path style="stroke:none" d="M 1.703125 -12.734375 L 4.75 -12.734375 C 5.382812 -12.734375 5.96875 -12.640625 6.5 -12.453125 C 7.039062 -12.265625 7.503906 -12.003906 7.890625 -11.671875 C 8.273438 -11.335938 8.578125 -10.941406 8.796875 -10.484375 C 9.015625 -10.023438 9.125 -9.523438 9.125 -8.984375 C 9.125 -8.546875 9.050781 -8.128906 8.90625 -7.734375 C 8.769531 -7.347656 8.570312 -7 8.3125 -6.6875 C 8.0625 -6.382812 7.757812 -6.117188 7.40625 -5.890625 C 7.050781 -5.671875 6.664062 -5.503906 6.25 -5.390625 L 9.875 0 L 8.28125 0 L 4.75 -5.25 L 3.046875 -5.25 L 3.046875 0 L 1.703125 0 Z M 4.75 -6.484375 C 5.664062 -6.484375 6.398438 -6.707031 6.953125 -7.15625 C 7.515625 -7.613281 7.796875 -8.226562 7.796875 -9 C 7.796875 -9.757812 7.515625 -10.363281 6.953125 -10.8125 C 6.398438 -11.269531 5.664062 -11.5 4.75 -11.5 L 3.046875 -11.5 L 3.046875 -6.484375 Z M 4.75 -6.484375 "/></g></g><g style="fill:#000000;fill-opacity:1;"><g transform="translate(244.225778, 232.232094)"><path style="stroke:none" d="M 3 -9.90625 L 3 0 L 1.703125 0 L 1.703125 -13.109375 L 2.09375 -13.109375 L 10.671875 -2.828125 L 10.671875 -12.734375 L 11.96875 -12.734375 L 11.96875 0.375 L 11.59375 0.375 Z M 3 -9.90625 "/></g></g><g style="fill:#000000;fill-opacity:1;"><g transform="translate(263.603061, 232.232094)"><path style="stroke:none" d="M 1.703125 -12.734375 L 8.265625 -12.734375 L 8.265625 -11.5 L 3.046875 -11.5 L 3.046875 -7.21875 L 7.03125 -7.21875 L 7.03125 -5.984375 L 3.046875 -5.984375 L 3.046875 -1.234375 L 8.359375 -1.234375 L 8.359375 0 L 1.703125 0 Z M 1.703125 -12.734375 "/></g></g><g style="fill:#000000;fill-opacity:1;"><g transform="translate(278.801192, 232.232094)"><path style="stroke:none" d="M 1.703125 -12.734375 L 4.75 -12.734375 C 5.382812 -12.734375 5.96875 -12.640625 6.5 -12.453125 C 7.039062 -12.265625 7.503906 -12.003906 7.890625 -11.671875 C 8.273438 -11.335938 8.578125 -10.941406 8.796875 -10.484375 C 9.015625 -10.023438 9.125 -9.523438 9.125 -8.984375 C 9.125 -8.546875 9.050781 -8.128906 8.90625 -7.734375 C 8.769531 -7.347656 8.570312 -7 8.3125 -6.6875 C 8.0625 -6.382812 7.757812 -6.117188 7.40625 -5.890625 C 7.050781 -5.671875 6.664062 -5.503906 6.25 -5.390625 L 9.875 0 L 8.28125 0 L 4.75 -5.25 L 3.046875 -5.25 L 3.046875 0 L 1.703125 0 Z M 4.75 -6.484375 C 5.664062 -6.484375 6.398438 -6.707031 6.953125 -7.15625 C 7.515625 -7.613281 7.796875 -8.226562 7.796875 -9 C 7.796875 -9.757812 7.515625 -10.363281 6.953125 -10.8125 C 6.398438 -11.269531 5.664062 -11.5 4.75 -11.5 L 3.046875 -11.5 L 3.046875 -6.484375 Z M 4.75 -6.484375 "/></g></g></g></svg>